<?xml version="1.0" encoding="utf-8"?>
<!-- Generator: Adobe Illustrator 17.1.0, SVG Export Plug-In . SVG Version: 6.00 Build 0)  -->
<!DOCTYPE svg PUBLIC "-//W3C//DTD SVG 1.1//EN" "http://www.w3.org/Graphics/SVG/1.1/DTD/svg11.dtd">
<svg version="1.1" id="Слой_1" xmlns="http://www.w3.org/2000/svg" xmlns:xlink="http://www.w3.org/1999/xlink" x="0px" y="0px"
	 viewBox="0 0 30 30" enable-background="new 0 0 30 30" xml:space="preserve">
<g id="Het1PX.tif">
	<g>
		<path fill="#FFFFFF" d="M29.1,4.6c-0.1,0.7-0.3,1.4-0.4,2.2c-1.3,6.1-2.6,12.3-3.9,18.4c-0.1,0.4-0.2,0.7-0.3,1
			c-0.3,0.5-0.8,0.7-1.3,0.6c-0.4-0.1-0.7-0.3-1-0.5c-2-1.5-3.9-2.9-5.9-4.4c-0.2-0.2-0.4-0.2-0.6,0c-1,1-1.9,1.9-2.9,2.9
			c-0.4,0.4-0.8,0.6-1.3,0.6c-0.4,0-0.6-0.2-0.7-0.5c-0.6-1.9-1.2-3.8-1.8-5.7c-0.2-0.6-0.4-1.3-0.6-1.9c-0.1-0.2-0.2-0.4-0.4-0.4
			C5.9,16.3,4,15.7,2,15.1c-0.3-0.1-0.5-0.2-0.7-0.3c-0.5-0.3-0.6-0.8-0.1-1.2c0.3-0.3,0.7-0.5,1.1-0.6c2.6-1,5.2-2,7.8-3
			c5.6-2.2,11.3-4.4,16.9-6.5c0,0,0.1,0,0.1-0.1C28.3,2.9,29.1,3.4,29.1,4.6z M11.4,23.6c0.1,0,0.1-0.1,0.1-0.2
			c0.1-1.4,0.3-2.8,0.4-4.1c0-0.3,0.1-0.6,0.4-0.8c3.7-3.3,7.4-6.6,11-9.9c0.2-0.2,0.5-0.4,0.7-0.6c0.1-0.1,0.2-0.2,0.1-0.3
			c-0.1-0.2-0.2-0.1-0.4-0.1c-0.3,0-0.5,0.2-0.8,0.3c-4.5,2.9-9.1,5.7-13.6,8.6c-0.3,0.2-0.3,0.3-0.2,0.6c0.6,1.7,1.1,3.4,1.7,5
			C11,22.5,11.2,23,11.4,23.6z"/>
	</g>
</g>
</svg>
