<?xml version="1.0" encoding="utf-8"?>
<!-- Generator: Adobe Illustrator 17.1.0, SVG Export Plug-In . SVG Version: 6.00 Build 0)  -->
<!DOCTYPE svg PUBLIC "-//W3C//DTD SVG 1.1//EN" "http://www.w3.org/Graphics/SVG/1.1/DTD/svg11.dtd">
<svg version="1.1" id="Слой_1" xmlns="http://www.w3.org/2000/svg" xmlns:xlink="http://www.w3.org/1999/xlink" x="0px" y="0px"
	 viewBox="0 0 30 30" enable-background="new 0 0 30 30" xml:space="preserve">
<g>
	<path fill="#F1F2F1" d="M29.2,6.2c-1,0.5-2.2,0.8-3.4,0.9c1.2-0.7,2.1-1.9,2.6-3.2c-1.1,0.7-2.4,1.2-3.7,1.4
		c-1.1-1.1-2.6-1.8-4.3-1.8c-3.2,0-5.8,2.6-5.8,5.8c0,0.5,0.1,0.9,0.2,1.3C9.9,10.4,5.6,8,2.8,4.5C2.3,5.4,2,6.4,2,7.4
		c0,2,1,3.8,2.6,4.9c-1,0-1.9-0.3-2.6-0.7c0,0,0,0,0,0.1c0,2.8,2,5.2,4.7,5.7c-0.5,0.1-1,0.2-1.5,0.2c-0.4,0-0.7,0-1.1-0.1
		c0.7,2.3,2.9,4,5.5,4.1c-2,1.6-4.5,2.5-7.3,2.5c-0.5,0-0.9,0-1.4-0.1c2.6,1.7,5.7,2.6,8.9,2.6c10.7,0,16.6-8.9,16.6-16.6
		c0-0.3,0-0.5,0-0.8C27.5,8.4,28.4,7.3,29.2,6.2L29.2,6.2z M29.2,6.2"/>
</g>
</svg>
